<!DOCTYPE svg PUBLIC "-//W3C//DTD SVG 1.1//EN" "http://www.w3.org/Graphics/SVG/1.1/DTD/svg11.dtd">
<!-- Uploaded to: SVG Repo, www.svgrepo.com, Transformed by: SVG Repo Mixer Tools -->
<svg width="100px" height="100px" viewBox="0 0 24 24" id="Layer_1" data-name="Layer 1" xmlns="http://www.w3.org/2000/svg" fill="#000000">
<g id="SVGRepo_bgCarrier" stroke-width="0"/>
<g id="SVGRepo_tracerCarrier" stroke-linecap="round" stroke-linejoin="round"/>
<g id="SVGRepo_iconCarrier">
<defs>
<style>.cls-1{fill:none;stroke:#020202;stroke-miterlimit:10;stroke-width:1.9200000000000004;}</style>
</defs>
<path class="cls-1" d="M7.23,1.5h9.55a1.91,1.91,0,0,1,1.91,1.91V22.5a0,0,0,0,1,0,0H5.32a0,0,0,0,1,0,0V3.41A1.91,1.91,0,0,1,7.23,1.5Z"/>
<path class="cls-1" d="M7.23,1.5h9.55a1.91,1.91,0,0,1,1.91,1.91v6.68a0,0,0,0,1,0,0H5.32a0,0,0,0,1,0,0V3.41A1.91,1.91,0,0,1,7.23,1.5Z"/>
<line class="cls-1" x1="8.18" y1="4.36" x2="8.18" y2="7.23"/>
<line class="cls-1" x1="8.18" y1="12.95" x2="8.18" y2="15.82"/>
</g>
</svg>