<!DOCTYPE svg PUBLIC "-//W3C//DTD SVG 1.1//EN" "http://www.w3.org/Graphics/SVG/1.1/DTD/svg11.dtd">
<!-- Uploaded to: SVG Repo, www.svgrepo.com, Transformed by: SVG Repo Mixer Tools -->
<svg fill="#000000" version="1.1" id="Layer_1" xmlns="http://www.w3.org/2000/svg" xmlns:xlink="http://www.w3.org/1999/xlink" viewBox="0 0 512.00 512.00" xml:space="preserve" width="100px" height="100px" stroke="#000000" stroke-width="10.24">
<g id="SVGRepo_bgCarrier" stroke-width="0"/>
<g id="SVGRepo_tracerCarrier" stroke-linecap="round" stroke-linejoin="round"/>
<g id="SVGRepo_iconCarrier"> <g> <g> <path d="M255.958,156.815c-70.615,0-128.065,57.45-128.065,128.065s57.45,128.065,128.065,128.065s128.065-57.45,128.065-128.065 S326.573,156.815,255.958,156.815z M255.958,397.264c-61.968,0-112.384-50.415-112.384-112.384s50.415-112.384,112.384-112.384 s112.384,50.415,112.384,112.384S317.926,397.264,255.958,397.264z"/> </g> </g> <g> <g> <path d="M355.378,382.82c-25.194,25.741-58.881,40.502-94.853,41.565l0.463,15.674c40.048-1.184,77.55-17.617,105.597-46.271 L355.378,382.82z"/> </g> </g> <g> <g> <path d="M148.532,175.739l10.973,11.204c26.031-25.496,60.438-39.537,96.882-39.537v-15.681 C215.816,131.724,177.512,147.356,148.532,175.739z"/> </g> </g> <g> <g> <path d="M65.209,0v486.126h381.582V0H65.209z M80.89,15.681h88.82v67.953H80.89V15.681z M431.11,470.444H80.89V99.316H431.11 V470.444z M431.11,83.635H185.392V15.681H431.11V83.635z"/> </g> </g> <g> <g> <path d="M255.958,198.632c-47.558,0-86.248,38.69-86.248,86.248c0,47.558,38.69,86.248,86.248,86.248s86.248-38.69,86.248-86.248 C342.206,237.322,303.516,198.632,255.958,198.632z M255.958,214.313c36.26,0,66.206,27.493,70.12,62.726H185.837 C189.751,241.806,219.698,214.313,255.958,214.313z M255.958,355.447c-36.259,0-66.206-27.493-70.12-62.726h140.24 C322.164,327.954,292.217,355.447,255.958,355.447z"/> </g> </g> <g> <g> <path d="M125.3,26.136c-12.971,0-23.522,10.552-23.522,23.522c0,12.971,10.552,23.522,23.522,23.522s23.522-10.552,23.522-23.522 C148.822,36.687,138.271,26.136,125.3,26.136z M125.3,57.499c-4.324,0-7.841-3.517-7.841-7.841c0-4.324,3.517-7.841,7.841-7.841 c4.324,0,7.841,3.517,7.841,7.841C133.141,53.982,129.624,57.499,125.3,57.499z"/> </g> </g> <g> <g> <rect x="313.525" y="41.817" width="15.682" height="15.681"/> </g> </g> <g> <g> <rect x="386.705" y="41.817" width="15.681" height="15.681"/> </g> </g> <g> <g> <rect x="350.115" y="41.817" width="15.681" height="15.681"/> </g> </g> <g> <g> <rect x="93.953" y="496.319" width="52.272" height="15.681"/> </g> </g> <g> <g> <rect x="365.765" y="496.319" width="52.272" height="15.681"/> </g> </g> </g>
</svg>